<svg xmlns="http://www.w3.org/2000/svg" width="28" height="28" fill="none"><g clip-path="url(#a)"><path fill="#2D4B70" d="M4.667 27.333q-1.1 0-1.883-.782A2.57 2.57 0 0 1 2 24.667V6q0-1.099.784-1.883a2.57 2.57 0 0 1 1.883-.784H6V2q0-.566.384-.95.384-.381.95-.383.566 0 .95.384.384.383.383.95v1.332h10.666V2q0-.566.384-.95.384-.381.95-.383.566 0 .95.384.384.383.383.95v1.332h1.333q1.101 0 1.884.784.784.784.783 1.883v18.667a2.57 2.57 0 0 1-.783 1.884 2.56 2.56 0 0 1-1.884.782zm0-2.666h18.666V11.333H4.667z"/><path fill="#633790" fill-rule="evenodd" d="M9.714 24A1.714 1.714 0 0 0 8 22.286V24z" clip-rule="evenodd"/><path fill="#0065B1" fill-rule="evenodd" d="M11.429 24H9.714A1.714 1.714 0 0 0 8 22.286V20.57a3.43 3.43 0 0 1 3.429 3.43" clip-rule="evenodd"/><path fill="#4EC1F0" fill-rule="evenodd" d="M13.143 24h-1.714A3.43 3.43 0 0 0 8 20.572v-1.715A5.14 5.14 0 0 1 13.143 24" clip-rule="evenodd"/><path fill="#009B4D" fill-rule="evenodd" d="M14.857 24h-1.714A5.144 5.144 0 0 0 8 18.857v-1.714A6.857 6.857 0 0 1 14.857 24" clip-rule="evenodd"/><path fill="#F2EA1A" fill-rule="evenodd" d="M16.571 24h-1.714A6.857 6.857 0 0 0 8 17.143v-1.715A8.57 8.57 0 0 1 16.571 24" clip-rule="evenodd"/><path fill="#EE7A00" fill-rule="evenodd" d="M18.286 24H16.57A8.573 8.573 0 0 0 8 15.43v-1.715A10.286 10.286 0 0 1 18.286 24" clip-rule="evenodd"/><path fill="#DB062C" d="M20 24A12 12 0 0 0 8 12v1.714A10.286 10.286 0 0 1 18.286 24z"/></g><defs><clipPath id="a"><path fill="#fff" d="M0 0h28v28H0z"/></clipPath></defs></svg>